<svg width="1752" height="1160" viewBox="0 0 1752 1160" fill="none" xmlns="http://www.w3.org/2000/svg">
<g clip-path="url(#clip0)">
<path d="M863.516 813.799C1033.48 813.799 1171.27 676.012 1171.27 506.043C1171.27 336.075 1033.48 198.288 863.516 198.288C693.547 198.288 555.76 336.075 555.76 506.043C555.76 676.012 693.547 813.799 863.516 813.799Z" fill="#F75534"/>
<path d="M906.128 798.023C736.158 798.023 598.372 660.237 598.372 490.268C598.372 365.93 672.116 258.825 778.244 210.273C649.756 247.245 555.758 365.665 555.758 506.05C555.758 676.02 693.544 813.806 863.513 813.806C909.143 813.806 952.448 803.862 991.394 786.047C964.32 793.839 935.712 798.023 906.128 798.023Z" fill="#BD391E"/>
<path d="M1325.86 981.029H401.172C391.348 981.029 388.009 967.961 396.602 963.251C478.797 918.389 693.419 794.269 819.694 657.034C821.493 655.069 824.003 653.979 826.631 653.979H900.398C903.026 653.979 905.534 655.069 907.335 657.034C1033.61 794.269 1248.23 918.389 1330.43 963.251C1339.02 967.961 1335.68 981.029 1325.86 981.029Z" fill="#7FB2F0"/>
<path d="M1007.63 456.657C1005.43 458.207 1003.3 459.852 1001.24 461.578C1003 461.907 1004.74 462.283 1006.46 462.725C1006.77 460.676 1007.18 458.66 1007.63 456.657Z" fill="#DBD2CA"/>
<path d="M863.516 653.979C736.271 790.103 586.536 916.162 457.219 981.029H401.172C391.348 981.029 388.009 967.961 396.602 963.251C478.797 918.389 693.419 794.269 819.694 657.034C821.493 655.069 824.003 653.979 826.631 653.979H863.516Z" fill="#5F95D4"/>
<path d="M1146.15 851.984C1135.14 870.474 1125.22 890.76 1103.45 890.76C1063.46 890.76 1063.46 822.39 1023.5 822.39C983.517 822.39 983.517 890.76 943.531 890.76C903.522 890.76 903.522 822.39 863.561 822.39C823.577 822.39 823.577 890.76 783.591 890.76C743.583 890.76 743.583 822.39 703.622 822.39C698.295 822.39 693.678 823.598 689.584 825.727C685.465 827.834 681.842 830.864 678.575 834.464C660.772 854.089 652.937 890.76 623.652 890.76C617.852 890.76 612.904 889.317 608.549 886.854C608.171 886.641 607.792 886.403 607.412 886.145C596.025 879.162 588.757 865.075 580.945 851.936C663.661 796.825 753.737 728.716 819.692 657.034C821.491 655.092 824.001 653.979 826.629 653.979H900.396C903.024 653.979 905.532 655.092 907.333 657.034C973.313 728.741 1063.41 796.872 1146.15 851.984Z" fill="#F7EDE3"/>
<path d="M1425.76 998.783H301.271C291.466 998.783 283.516 990.833 283.516 981.027C283.516 971.221 291.466 963.271 301.271 963.271H1425.76C1435.57 963.271 1443.52 971.221 1443.52 981.027C1443.52 990.833 1435.57 998.783 1425.76 998.783Z" fill="#5F95D4"/>
</g>
<path d="M1410.35 666.99L1735.63 659.362C1735.63 659.362 1762.53 692.463 1743.08 727.813L1408.65 731.73L1402.26 666.778C1410.35 666.99 1410.35 666.99 1410.35 666.99Z" fill="#333333"/>
<path d="M1323.12 670.976C1323.12 670.976 1331.82 735.013 1327.11 738.36C1327.11 738.36 508.672 758.451 97.5684 686.311C97.5684 686.311 61.9938 683.289 18.125 635.859C16.9143 648.822 644.422 726.176 1323.12 670.976Z" fill="#B3B6B7"/>
<path d="M1384.77 767.985C1365.26 769.154 1347.48 737.448 1345.07 697.167C1342.66 656.887 1356.52 623.286 1376.03 622.117C1395.55 620.948 1413.32 652.654 1415.73 692.934C1418.15 733.214 1404.28 766.816 1384.77 767.985Z" fill="#333333"/>
<path d="M1379.04 766.752C1359.85 767.902 1342.36 736.532 1339.97 696.685C1337.59 656.838 1351.21 623.604 1370.4 622.454C1389.59 621.305 1407.08 652.675 1409.47 692.522C1411.85 732.369 1398.23 765.603 1379.04 766.752Z" fill="#595959"/>
<path d="M1323.13 669.449L1369.62 665.312C1369.62 665.312 1380 706.172 1372.54 735.988L1326.09 737.812C1326.09 737.812 1326.58 712.378 1323.13 669.449Z" fill="#E2C430"/>
<path opacity="0.45" d="M166.066 699.297C136.062 695.338 107.442 691.021 80.5756 686.306C80.5756 686.306 43.8688 679.887 0 632.457C0.0195788 647.249 630.73 727.334 1307.12 671.057L1342.32 667.602C1346.17 641.859 1357.33 623.364 1371.56 622.51C1372.5 622.454 1373.44 622.498 1374.37 622.597C1375.3 622.387 1376.24 622.229 1377.19 622.173C1392.23 621.272 1406.23 639.914 1412.97 666.95L1736.77 659.355C1736.77 659.355 1750.7 676.502 1751.26 699.295L166.066 699.297Z" fill="#F0F6F7"/>
<path d="M454.994 571.051L454.97 571.015L454.944 570.979L397.829 491.95C396.207 489.585 394.442 487.711 392.484 486.568C391.424 485.789 390.275 485.237 389.051 484.916L458.231 400.157L460.514 397.36L457.093 396.207C455.264 395.59 453.348 395.288 451.36 395.288C446.565 395.288 442.509 397.338 439.311 401.178L439.303 401.188L439.295 401.198L360.369 497.927V398.576V397.133L359.119 396.411C357.655 395.565 356.097 395.025 354.492 395.025C351.66 395.025 349.209 396.076 347.581 398.381C346.066 400.527 345.5 403.435 345.5 406.718V582.424V583.867L346.749 584.589C348.214 585.435 349.771 585.975 351.376 585.975C354.209 585.975 356.66 584.924 358.287 582.619C359.803 580.473 360.369 577.565 360.369 574.282V520.021L381.646 494.058L444.902 580.714C447.284 584.195 450.742 585.975 454.996 585.975C457.352 585.975 459.532 585.577 461.474 584.704L462.949 584.041V582.424V580.848V579.163L461.387 578.531C461.08 578.407 460.338 577.902 459.13 576.554C457.983 575.274 456.606 573.453 454.994 571.051ZM521.062 581.606L520.433 583.422L522.027 584.497C523.911 585.768 525.948 586.5 528.099 586.5C532.946 586.5 535.936 582.467 537.734 577.199C537.735 577.196 537.736 577.193 537.737 577.19L555.844 525.305H628.903L649.614 584.822L650.198 586.5H651.975C654.644 586.5 657.102 586.006 658.94 584.613C660.907 583.121 661.747 580.923 661.747 578.485C661.747 576.918 661.417 575.245 660.842 573.5L660.836 573.482L660.83 573.465L599.801 396.971L599.442 395.931L598.433 395.494C596.892 394.826 595.253 394.5 593.543 394.5C590.838 394.5 588.454 395.44 586.571 397.343C584.805 399.13 583.357 401.899 582.104 405.337L582.098 405.355L582.091 405.374L521.062 581.606ZM844.628 397.468L843.94 396.076H842.387H733.313C730.629 396.076 728.197 396.554 726.264 397.776L726.199 397.817L726.136 397.862C724.156 399.293 723.282 401.432 723.282 403.829C723.282 405.306 723.65 406.733 724.32 408.088L725.008 409.48H726.561H777.04V582.424V583.867L778.289 584.589C779.754 585.435 781.311 585.975 782.916 585.975C785.748 585.975 788.199 584.924 789.827 582.619C791.342 580.473 791.908 577.565 791.908 574.282V409.48H835.635C838.254 409.48 840.667 409.026 842.489 407.739C844.613 406.367 845.666 404.24 845.666 401.728C845.666 400.25 845.298 398.823 844.628 397.468ZM907.313 581.606L906.684 583.422L908.277 584.497C910.162 585.768 912.199 586.5 914.35 586.5C919.197 586.5 922.187 582.466 923.985 577.197C923.986 577.195 923.987 577.192 923.987 577.19L942.095 525.305H1015.15L1035.86 584.822L1036.45 586.5H1038.23C1040.89 586.5 1043.35 586.006 1045.19 584.613C1047.16 583.121 1048 580.923 1048 578.485C1048 576.918 1047.67 575.245 1047.09 573.5L1047.09 573.482L1047.08 573.465L986.052 396.971L985.692 395.931L984.683 395.494C983.142 394.826 981.504 394.5 979.794 394.5C977.089 394.5 974.704 395.439 972.822 397.343C971.056 399.13 969.607 401.899 968.355 405.337L968.348 405.355L968.342 405.374L907.313 581.606ZM1124.6 582.424V583.867L1125.84 584.589C1127.31 585.435 1128.87 585.975 1130.47 585.975C1133.3 585.975 1135.76 584.924 1137.38 582.619C1138.9 580.473 1139.46 577.565 1139.46 574.282V421.695L1234.53 583.689L1234.9 584.323L1235.56 584.655C1237.3 585.533 1239.15 585.975 1241.1 585.975C1244.49 585.975 1247.44 584.911 1249.47 582.429C1251.41 580.044 1252.17 576.747 1252.17 572.969V398.576V397.133L1250.92 396.411C1249.46 395.565 1247.9 395.025 1246.3 395.025C1243.46 395.025 1241.01 396.076 1239.39 398.381C1237.87 400.527 1237.3 403.435 1237.3 406.718V559.305L1142.24 397.31L1141.86 396.677L1141.21 396.345C1139.47 395.467 1137.61 395.025 1135.67 395.025C1132.27 395.025 1129.33 396.089 1127.3 398.571C1125.36 400.956 1124.6 404.253 1124.6 408.031V582.424ZM1328.82 581.606L1328.19 583.422L1329.78 584.497C1331.66 585.768 1333.7 586.5 1335.85 586.5C1340.7 586.5 1343.69 582.466 1345.49 577.197C1345.49 577.195 1345.49 577.192 1345.49 577.19L1363.6 525.305H1436.66L1457.37 584.822L1457.95 586.5H1459.73C1462.4 586.5 1464.86 586.006 1466.69 584.613C1468.66 583.121 1469.5 580.923 1469.5 578.485C1469.5 576.918 1469.17 575.245 1468.6 573.5L1468.59 573.482L1468.58 573.465L1407.55 396.971L1407.2 395.931L1406.19 395.494C1404.65 394.826 1403.01 394.5 1401.3 394.5C1398.59 394.5 1396.21 395.439 1394.32 397.343C1392.56 399.13 1391.11 401.899 1389.86 405.337L1389.85 405.355L1389.84 405.374L1328.82 581.606ZM560.432 511.9L592.253 419.615L624.308 511.9H560.432ZM946.683 511.9L978.504 419.615L1010.56 511.9H946.683ZM1368.19 511.9L1400.01 419.615L1432.06 511.9H1368.19Z" fill="white" stroke="black" stroke-width="5"/>
<defs>
<clipPath id="clip0">
<rect width="1160" height="1160" fill="white" transform="translate(283.516)"/>
</clipPath>
</defs>
</svg>
