<svg width="1399" height="1400" viewBox="0 0 1399 1400" fill="none" xmlns="http://www.w3.org/2000/svg">
<path d="M184.367 774.793V1219.73H92.1836V774.793L138.275 713.426L184.367 774.793Z" fill="#A3DC93"/>
<path d="M184.367 7.66992V391.232L138.275 452.602L92.1836 391.232V7.66992H184.367Z" fill="#A3DC93"/>
<path d="M184.367 391.232H92.1836V774.793H184.367V391.232Z" fill="#CAED73"/>
<path d="M1083.38 541.778C1121.58 579.934 1168.63 602.025 1213.74 606.87C1208.89 561.818 1186.77 514.842 1148.56 476.686C1110.35 438.531 1063.31 416.44 1018.19 411.595C1023.05 456.643 1045.16 503.62 1083.38 541.778Z" fill="#83C49A"/>
<path d="M1083.38 158.216C1121.58 196.372 1168.63 218.463 1213.74 223.308C1208.89 178.257 1186.77 131.28 1148.56 93.1246C1110.35 54.9692 1063.31 32.8781 1018.19 28.0328C1023.05 73.0817 1045.16 120.058 1083.38 158.216Z" fill="#A3DC93"/>
<path d="M1056.38 904.98C1018.17 943.135 971.125 965.226 926.01 970.071C930.865 925.02 952.984 878.043 991.193 839.888C1029.4 801.732 1076.44 779.641 1121.56 774.796C1116.7 819.845 1094.59 866.821 1056.38 904.98Z" fill="#A3DC93"/>
<path d="M334.729 250.272C372.937 288.427 419.979 310.518 465.093 315.364C460.239 270.312 438.12 223.336 399.911 185.18C361.703 147.025 314.661 124.934 269.546 120.088C274.401 165.137 296.52 212.114 334.729 250.272Z" fill="#A3DC93"/>
<path d="M334.729 904.98C372.937 943.135 419.979 965.226 465.093 970.071C460.239 925.02 438.12 878.043 399.911 839.888C361.703 801.732 314.661 779.644 269.546 774.796C274.401 819.845 296.52 866.821 334.729 904.98Z" fill="#A3DC93"/>
<path d="M314.732 541.778C276.523 579.934 229.481 602.025 184.367 606.87C189.222 561.818 211.341 514.842 249.549 476.686C287.758 438.531 334.8 416.44 379.914 411.595C375.062 456.643 352.946 503.62 314.732 541.778Z" fill="#83C49A"/>
<path d="M1305.92 774.793V1219.73H1213.74V774.793L1259.83 713.426L1305.92 774.793Z" fill="#83C49A"/>
<path d="M1305.92 7.66992V391.232L1259.83 452.602L1213.74 391.232V7.66992H1305.92Z" fill="#83C49A"/>
<path d="M1305.91 391.232H1213.73V774.793H1305.91V391.232Z" fill="#A3DC93"/>
<path d="M926.008 767.123V1212.06H833.824V767.123L879.916 705.753L926.008 767.123Z" fill="#A3DC93"/>
<path d="M926.008 0V383.562L879.916 444.932L833.824 383.562V0H926.008Z" fill="#A3DC93"/>
<path d="M926.024 391.232H833.841V774.793H926.024V391.232Z" fill="#CAED73"/>
<path d="M741.644 774.793V1219.73H649.46V774.793L695.552 713.426L741.644 774.793Z" fill="#A3DC93"/>
<path d="M741.644 7.66992V391.232L695.552 452.602L649.46 391.232V7.66992H741.644Z" fill="#A3DC93"/>
<path d="M741.657 391.232H649.474V774.793H741.657V391.232Z" fill="#83C49A"/>
<path d="M557.277 774.793V1219.73H465.093V774.793L511.185 713.426L557.277 774.793Z" fill="#83C49A"/>
<path d="M557.277 7.66992V391.232L511.185 452.602L465.093 391.232V7.66992H557.277Z" fill="#83C49A"/>
<path d="M557.293 391.232H465.109V774.793H557.293V391.232Z" fill="#A3DC93"/>
<path d="M1305.92 1154.52L1213.74 1277.26L1305.92 1400H1398.11V1154.52H1305.92Z" fill="#AAC36D"/>
<path d="M1305.92 1154.52H0V1400H1305.92V1154.52Z" fill="#CAED73"/>
<path d="M92.1834 1284.93C79.4564 1284.93 69.1389 1274.63 69.1389 1261.92V1231.23C69.1389 1218.53 79.4564 1208.22 92.1834 1208.22C104.91 1208.22 115.228 1218.53 115.228 1231.23V1261.92C115.231 1274.63 104.91 1284.93 92.1834 1284.93Z" fill="#AAC36D"/>
<path d="M184.367 1346.3C171.64 1346.3 161.323 1336 161.323 1323.29V1292.6C161.323 1279.9 171.64 1269.59 184.367 1269.59C197.094 1269.59 207.412 1279.9 207.412 1292.6V1323.29C207.412 1336 197.094 1346.3 184.367 1346.3Z" fill="#AAC36D"/>
<path d="M276.551 1315.62C263.824 1315.62 253.506 1305.31 253.506 1292.6V1261.92C253.506 1249.21 263.824 1238.91 276.551 1238.91C289.278 1238.91 299.595 1249.21 299.595 1261.92V1292.6C299.595 1305.31 289.278 1315.62 276.551 1315.62Z" fill="#95AC66"/>
<path d="M1221.42 1284.93C1208.7 1284.93 1198.38 1274.63 1198.38 1261.92V1231.23C1198.38 1218.53 1208.7 1208.22 1221.42 1208.22C1234.15 1208.22 1244.47 1218.53 1244.47 1231.23V1261.92C1244.47 1274.63 1234.15 1284.93 1221.42 1284.93Z" fill="#95AC66"/>
<path d="M875.737 1346.3C863.01 1346.3 852.693 1336 852.693 1323.29V1292.6C852.693 1279.9 863.01 1269.59 875.737 1269.59C888.464 1269.59 898.782 1279.9 898.782 1292.6V1323.29C898.782 1336 888.464 1346.3 875.737 1346.3Z" fill="#AAC36D"/>
<path d="M967.921 1346.3C955.194 1346.3 944.876 1336 944.876 1323.29V1292.6C944.876 1279.9 955.194 1269.59 967.921 1269.59C980.648 1269.59 990.965 1279.9 990.965 1292.6V1323.29C990.965 1336 980.648 1346.3 967.921 1346.3Z" fill="#AAC36D"/>
<path d="M537.734 1346.3C525.007 1346.3 514.69 1336 514.69 1323.29V1292.6C514.69 1279.9 525.007 1269.59 537.734 1269.59C550.461 1269.59 560.779 1279.9 560.779 1292.6V1323.29C560.779 1336 550.461 1346.3 537.734 1346.3Z" fill="#AAC36D"/>
<path d="M772.735 818.902H587.167V1203.29H772.735V818.902Z" fill="#FFC114"/>
<path d="M587.167 818.902H772.735V1203.29" fill="#EAAC0F"/>
<path d="M444.014 626.707L315.442 753.953L265.073 952.777L600.421 1156.9V865.294L445.339 626.707" fill="#4A8ABD"/>
<path d="M445.339 626.707L600.422 865.294V1156.9L401.598 1036.28" fill="#346F9E"/>
<path d="M915.888 626.707L1044.46 753.953L1094.83 952.777L759.481 1156.9V865.294L914.563 626.707" fill="#4A8ABD"/>
<path d="M914.563 626.707L759.481 865.294V1156.9L958.304 1036.28" fill="#346F9E"/>
<path d="M719.716 893.13L679.951 902.408L640.186 893.13V1054.84L679.951 1015.07L719.716 1054.84V893.13Z" fill="#E28FAF"/>
<path d="M679.951 1015.07L719.716 1054.84V893.13L679.951 902.408L640.186 893.13" fill="#C97396"/>
<path d="M445.339 626.707L679.951 512.715L914.562 626.707L877.448 828.181L679.951 935.545L482.453 828.181L445.339 626.707Z" fill="#FFE666"/>
<path d="M577.93 892.91H758.724V953.175H577.93V892.91Z" fill="black"/>
<path d="M668.406 907.991L683.475 923.06L668.406 938.128L653.338 923.06L668.406 907.991Z" fill="#E6E6E6"/>
<path d="M698.543 907.991L713.612 923.06L698.543 938.128L683.475 923.06L698.543 907.991Z" fill="#E6E6E6"/>
<path d="M728.68 907.991L743.748 923.06L728.68 938.128L713.612 923.06L728.68 907.991Z" fill="#E6E6E6"/>
<path d="M638.27 907.991L653.338 923.06L638.27 938.128L623.201 923.06L638.27 907.991Z" fill="#E6E6E6"/>
<path d="M445.339 626.707L679.951 670.448L914.562 626.707L877.448 828.181L679.951 935.545L482.453 828.181L445.339 626.707Z" fill="#EBC13F"/>
<path d="M577.927 847.701H577.925C561.284 847.701 547.794 861.192 547.794 877.833V968.231C547.794 984.872 561.284 998.362 577.925 998.362H577.927C594.568 998.362 608.058 984.872 608.058 968.231V877.833C608.058 861.192 594.568 847.701 577.927 847.701Z" fill="#4D4D4D"/>
<path d="M679.951 512.715L914.562 626.707L877.449 828.181L679.951 935.545" fill="#FFE666"/>
<path d="M587.167 747.326L520.892 726.118V689.004L587.167 708.887V747.326Z" fill="#5E6664"/>
<path d="M587.167 708.887V747.326L520.892 726.118" fill="#2F423F"/>
<path d="M772.736 747.326L839.01 726.118V689.004L772.736 708.887V747.326Z" fill="#5E6664"/>
<path d="M772.736 747.326L839.01 726.118V689.004" fill="#2F423F"/>
<g clip-path="url(#clip0)">
<path d="M530.33 517.877C516.51 556.723 504.374 631.413 494.706 708.393C494.256 711.993 493.806 715.593 493.37 719.193C492.935 722.794 492.499 726.394 492.064 729.994C488.666 758.404 485.619 786.681 482.947 813.174C482.207 820.549 481.495 827.793 480.828 834.846C480.48 838.36 480.146 841.828 479.827 845.256C477.766 867.06 476.008 886.935 474.571 903.728C472.728 925.589 471.421 942.242 470.754 951.111C470.478 954.799 466.862 957.28 463.307 956.234L462.392 955.959L369.123 928.318L342.499 920.436C339.944 919.683 338.217 917.272 338.333 914.601C339.029 899.518 340.321 884.826 342.136 870.543C345.011 847.811 349.221 826.08 354.447 805.392C354.882 803.65 355.333 801.923 355.797 800.21C357.655 793.068 359.644 786.056 361.763 779.176C370.095 751.84 380.155 726.523 391.188 703.268C392.741 699.957 394.323 696.692 395.921 693.47C397.562 690.159 399.216 686.908 400.901 683.685C443.697 601.36 496.508 548.157 519.154 527.544C526.208 521.143 530.33 517.877 530.33 517.877Z" fill="#F75534"/>
<path d="M519.153 527.545C516.381 536.574 513.695 547.012 511.081 558.539C485.503 587.964 454.468 629.758 428.017 683.049C411.627 716.017 397.009 753.397 386.528 794.973C381.301 815.658 377.106 837.389 374.232 860.124C373.535 865.67 372.679 872.086 371.779 879.344C370.138 892.684 368.381 908.872 367.263 927.771L342.495 920.437C339.939 919.68 338.213 917.273 338.337 914.61C338.65 907.846 339.082 901.167 339.639 894.557C340.016 889.941 340.438 885.368 340.931 880.824C341.308 877.369 341.701 873.942 342.136 870.546C345.011 847.814 349.221 826.083 354.447 805.395C364.927 763.819 379.531 726.439 395.921 693.471C439.529 605.572 495.621 548.973 519.153 527.545Z" fill="#BD391E"/>
<path d="M474.311 906.793C473.469 916.78 472.758 925.403 472.177 932.588C471.541 940.592 471.065 946.803 470.743 951.112C470.466 954.804 466.854 957.287 463.303 956.234L377.717 930.876L342.495 920.435C339.939 919.679 338.214 917.272 338.338 914.609C338.651 907.846 339.084 901.166 339.64 894.556C340.293 886.44 341.135 878.428 342.138 870.545H342.151C342.151 870.545 358.512 875.508 380.707 881.941C409.711 890.345 448.703 901.235 474.311 906.793Z" fill="#FFE666"/>
<path d="M371.779 879.342C370.138 892.682 368.381 908.869 367.263 927.768L342.495 920.435C339.939 919.679 338.213 917.272 338.337 914.608C338.65 907.845 339.082 901.166 339.639 894.556C340.016 889.939 340.438 885.367 340.931 880.823C341.308 877.368 341.701 873.941 342.136 870.545H342.15C342.15 870.545 354.258 874.218 371.779 879.342Z" fill="#EDBF31"/>
<path d="M1020.24 914.604C1020.36 917.275 1018.63 919.685 1016.07 920.439L914.586 950.503L895.25 956.237C891.709 957.296 888.094 954.815 887.804 951.127C887.05 941.299 885.597 922.674 884 903.729C882.563 886.933 880.806 867.06 878.744 845.258C878.426 841.831 878.092 838.363 877.743 834.848C877.074 827.793 876.364 820.55 875.624 813.176C872.953 786.682 869.903 758.404 866.507 729.995C866.071 726.395 865.636 722.795 865.2 719.195C864.765 715.595 864.315 711.98 863.865 708.395C854.792 636.145 843.54 565.914 830.781 525.442C829.939 522.785 829.097 520.26 828.241 517.879C828.241 517.879 901.536 575.756 957.672 683.687C959.356 686.894 961.011 690.161 962.652 693.472C964.25 696.694 965.832 699.96 967.385 703.271C978.419 726.527 988.477 751.844 996.81 779.178C998.929 786.059 1000.92 793.07 1002.78 800.212C1003.24 801.925 1003.69 803.653 1004.13 805.395C1009.35 826.08 1013.56 847.811 1016.44 870.546C1018.25 884.829 1019.54 899.521 1020.24 914.604Z" fill="#F75534"/>
<path d="M914.586 950.503L895.25 956.238C891.705 957.291 888.093 954.813 887.81 951.127C887.084 941.654 885.714 924.066 884.217 906.241C884.145 905.414 884.072 904.573 884 903.729C882.563 886.933 880.806 867.06 878.744 845.258C875.129 807.108 870.57 763.035 865.2 719.195C855.909 643.216 844.181 567.932 830.782 525.441C839.421 533.179 853.762 546.795 870.717 566.028C876.682 600.404 882.112 639.324 886.903 678.446C892.26 722.286 896.832 766.359 900.447 804.509C902.507 826.313 905.034 846.042 906.471 862.837C907.414 873.999 908.634 887.515 909.839 900.552C912.234 926.464 914.586 950.503 914.586 950.503Z" fill="#BD391E"/>
<path d="M1020.24 914.604C1020.36 917.269 1018.63 919.68 1016.07 920.438L920.569 948.733L895.269 956.236C891.721 957.288 888.106 954.805 887.829 951.115C887.213 942.94 886.048 927.922 884.263 906.795C894.003 904.676 905.676 901.802 918 898.579C962.885 886.821 1016.42 870.547 1016.42 870.547H1016.44C1018.24 884.837 1019.53 899.521 1020.24 914.604Z" fill="#FFE666"/>
<path d="M914.586 950.503L895.25 956.238C891.705 957.291 888.093 954.813 887.81 951.127C887.084 941.654 885.714 924.066 884.217 906.241C893.668 904.181 902.972 902.133 909.839 900.55C912.234 926.464 914.586 950.503 914.586 950.503Z" fill="#EDBF31"/>
<path d="M903.075 631.674H455.207C455.207 631.674 483.369 474.357 677.428 414.896C677.805 414.779 678.198 414.707 678.589 414.664C679.359 414.592 680.142 414.664 680.883 414.896C874.898 474.357 903.075 631.674 903.075 631.674Z" fill="#F75534"/>
<path d="M678.588 414.664C504.563 502.489 485.808 631.674 485.808 631.674H455.207C455.207 631.674 483.369 474.357 677.428 414.896C677.805 414.78 678.198 414.707 678.588 414.664Z" fill="#BD391E"/>
<path d="M900.177 362.296C900.177 457.77 797.693 535.166 671.258 535.166C544.84 535.166 442.338 457.77 442.338 362.296C442.338 335.764 450.251 310.63 464.395 288.167C467.651 282.998 475.59 285.698 475.101 291.787C474.773 295.856 474.608 299.965 474.608 304.106C474.608 399.581 562.658 476.976 671.258 476.976C779.877 476.976 867.927 399.581 867.927 304.106C867.927 299.971 867.762 295.873 867.435 291.816C866.948 285.727 874.889 283.027 878.142 288.199C892.273 310.656 900.177 335.776 900.177 362.296Z" fill="#FFE666"/>
<path d="M886.076 302.481C886.885 308.98 887.312 315.578 887.312 322.26C887.312 424.283 790.586 506.989 671.256 506.989C551.943 506.989 455.2 424.284 455.2 322.26C455.2 315.578 455.628 308.983 456.436 302.485C447.334 321.124 442.338 341.266 442.338 362.296C442.338 457.77 544.84 535.166 671.258 535.166C797.693 535.166 900.177 457.77 900.177 362.296C900.177 341.265 895.182 321.122 886.076 302.481Z" fill="#EBC13F"/>
<path d="M901.377 636.827C856.027 646.713 758.722 660.068 682.219 670.041C681.232 670.171 680.273 670.245 679.286 670.245C678.227 670.245 677.153 670.173 676.092 670.028C652.328 666.804 497.552 645.668 457.124 636.871C451.158 635.579 450.997 627.101 456.92 625.578C536.37 605.007 648.641 588.822 673.944 585.309C674.613 585.207 675.221 585.121 675.773 585.049C678.037 584.729 680.301 584.729 682.567 585.049C699.697 587.458 780.351 599.317 901.346 625.58C907.386 626.883 907.416 635.507 901.377 636.827Z" fill="#E64524"/>
<path d="M679.286 585.046V670.245C678.227 670.245 677.152 670.173 676.092 670.028C652.328 666.804 497.552 645.668 457.124 636.871C451.158 635.579 450.997 627.101 456.92 625.578C536.37 605.007 648.641 588.822 673.944 585.309L679.286 585.046Z" fill="#CF3E21"/>
<path d="M1002.77 800.211C992.904 804.348 936.027 827.401 878.076 834.82C877.959 834.833 877.859 834.848 877.742 834.848C877.073 827.793 876.363 820.55 875.623 813.176C934.822 805.54 994.993 779.859 995.588 779.613C995.994 779.438 996.401 779.294 996.807 779.177C998.928 786.059 1000.92 793.07 1002.77 800.211Z" fill="#752313"/>
<path d="M967.384 703.27C967.05 703.444 966.715 703.575 966.368 703.705C964.06 704.534 909.55 724.159 866.667 729.98C866.608 729.995 866.566 729.995 866.507 729.995C866.071 726.395 865.636 722.795 865.2 719.195C864.765 715.595 864.315 711.98 863.865 708.395C900.94 703.343 949.281 686.648 957.671 683.687C959.354 686.894 961.01 690.161 962.651 693.472C964.248 696.694 965.83 699.96 967.384 703.27Z" fill="#752313"/>
<path d="M482.948 813.176C482.208 820.55 481.497 827.794 480.829 834.848C480.712 834.848 480.612 834.834 480.495 834.82C422.544 827.401 365.668 804.349 355.796 800.211C357.654 793.07 359.643 786.057 361.762 779.177C362.168 779.294 362.574 779.437 362.98 779.613C363.578 779.86 423.749 805.539 482.948 813.176Z" fill="#752313"/>
<path d="M494.706 708.393C494.256 711.993 493.806 715.593 493.37 719.194C492.935 722.794 492.499 726.394 492.064 729.994C492.005 729.994 491.962 729.994 491.904 729.979C449.022 724.157 394.512 704.531 392.203 703.704C391.855 703.573 391.521 703.444 391.187 703.268C392.739 699.957 394.322 696.692 395.92 693.47C397.561 690.159 399.215 686.908 400.9 683.685C409.289 686.648 457.631 703.342 494.706 708.393Z" fill="#752313"/>
</g>
<path d="M577.996 953.197L513.786 953.196C449.877 953.197 386.034 951.078 322.257 946.84C258.509 942.611 194.942 936.273 131.557 927.825C108.37 924.734 86.8453 914.097 70.3045 897.557L28 855.252L138.706 869.445C260.666 885.08 383.5 892.922 506.459 892.923L577.996 892.923L577.996 953.197Z" fill="#CCCCCC"/>
<path d="M577.996 953.197L513.786 953.196C449.877 953.197 386.034 951.078 322.257 946.84C258.509 942.611 194.942 936.273 131.557 927.825C108.37 924.734 86.8453 914.097 70.3045 897.557L28 855.252C141.013 923.06 314.299 915.526 577.996 923.06V953.197Z" fill="#E6E6E6"/>
<defs>
<clipPath id="clip0">
<rect width="681.919" height="681.919" fill="white" transform="translate(338.326 280)"/>
</clipPath>
</defs>
</svg>
